<svg xmlns="http://www.w3.org/2000/svg" width="15" height="15" viewBox="0 0 15 15">
  <g id="add" transform="translate(-301 -865)">
    <rect id="Rectangle_331" data-name="Rectangle 331" width="15" height="15" rx="2" transform="translate(301 865)" fill="#00944d"/>
    <path id="Path_1663" data-name="Path 1663" d="M4.531-3.75,7.07-6.289a.286.286,0,0,0,.059-.176.211.211,0,0,0-.059-.156L6.621-7.07a.211.211,0,0,0-.156-.059.286.286,0,0,0-.176.059L3.75-4.531,1.211-7.07a.286.286,0,0,0-.176-.059.211.211,0,0,0-.156.059L.43-6.621a.211.211,0,0,0-.059.156.286.286,0,0,0,.059.176L2.969-3.75.43-1.211a.286.286,0,0,0-.059.176A.211.211,0,0,0,.43-.879L.879-.43a.211.211,0,0,0,.156.059A.286.286,0,0,0,1.211-.43L3.75-2.969,6.289-.43a.286.286,0,0,0,.176.059A.211.211,0,0,0,6.621-.43L7.07-.879a.211.211,0,0,0,.059-.156.286.286,0,0,0-.059-.176Z" transform="translate(308.5 877.793) rotate(-45)" fill="#fff"/>
  </g>
</svg>
