<svg id="bill" xmlns="http://www.w3.org/2000/svg" width="14.743" height="19.37" viewBox="0 0 14.743 19.37">
  <g id="Group_64" data-name="Group 64">
    <path id="Path_2" data-name="Path 2" d="M64.788.5a.811.811,0,0,0-.882.134L62.635,1.757a.091.091,0,0,1-.121,0L60.785.21a.823.823,0,0,0-1.1,0L57.959,1.755a.092.092,0,0,1-.122,0L56.109.21a.823.823,0,0,0-1.1,0L53.281,1.757a.092.092,0,0,1-.122,0L51.887.632a.818.818,0,0,0-1.361.617V18.121a.819.819,0,0,0,1.363.617l1.271-1.125a.091.091,0,0,1,.121,0l1.729,1.546a.823.823,0,0,0,1.1,0l1.728-1.545a.092.092,0,0,1,.122,0l1.728,1.545a.824.824,0,0,0,1.1,0l1.729-1.546a.092.092,0,0,1,.122,0l1.272,1.125a.818.818,0,0,0,1.361-.617V1.249A.811.811,0,0,0,64.788.5ZM53.558,6.571h4.56a.366.366,0,0,1,0,.733h-4.56a.366.366,0,0,1,0-.733Zm8.68,6.227h-8.68a.366.366,0,0,1,0-.733h8.68a.366.366,0,0,1,0,.733Zm0-2.747h-8.68a.366.366,0,1,1,0-.733h8.68a.366.366,0,0,1,0,.733Z" transform="translate(-50.526)" fill="#005BAF"/>
  </g>
</svg>
