<svg xmlns="http://www.w3.org/2000/svg" width="22.886" height="22.887" viewBox="0 0 22.886 22.887">
  <g id="close" transform="translate(410.251 -824.492) rotate(45)">
    <rect id="Rectangle_331" data-name="Rectangle 331" width="16.183" height="16.183" rx="8.092" transform="translate(301.004 865.004)" fill="#ed5757"/>
    <path id="Path_1660" data-name="Path 1660" d="M4.873-3.473,7.62-6.22a.309.309,0,0,0,.063-.19.229.229,0,0,0-.063-.169l-.486-.486a.229.229,0,0,0-.169-.063.309.309,0,0,0-.19.063L4.027-4.318,1.28-7.066a.309.309,0,0,0-.19-.063.229.229,0,0,0-.169.063l-.486.486a.229.229,0,0,0-.063.169.309.309,0,0,0,.063.19L3.182-3.473.434-.725a.309.309,0,0,0-.063.19.229.229,0,0,0,.063.169L.921.12A.229.229,0,0,0,1.09.184.309.309,0,0,0,1.28.12L4.027-2.627,6.775.12a.309.309,0,0,0,.19.063A.229.229,0,0,0,7.134.12L7.62-.366a.229.229,0,0,0,.063-.169.309.309,0,0,0-.063-.19Z" transform="translate(308.703 878.438) rotate(-45)" fill="#fff"/>
  </g>
</svg>
