<svg xmlns="http://www.w3.org/2000/svg" width="16.264" height="16.264" viewBox="0 0 16.264 16.264">
  <path id="plus" d="M6.835-1.879,10.78-5.824a.444.444,0,0,0,.091-.273.328.328,0,0,0-.091-.243l-.7-.7a.328.328,0,0,0-.243-.091.444.444,0,0,0-.273.091L5.621-3.093,1.676-7.038A.444.444,0,0,0,1.4-7.129a.328.328,0,0,0-.243.091l-.7.7A.328.328,0,0,0,.371-6.1a.444.444,0,0,0,.091.273L4.407-1.879.462,2.066a.444.444,0,0,0-.091.273.328.328,0,0,0,.091.243l.7.7a.328.328,0,0,0,.243.091.444.444,0,0,0,.273-.091L5.621-.665,9.566,3.28a.444.444,0,0,0,.273.091.328.328,0,0,0,.243-.091l.7-.7a.328.328,0,0,0,.091-.243.444.444,0,0,0-.091-.273Z" transform="translate(5.486 13.435) rotate(-45)" fill="#fff" stroke="#fff" stroke-width="1"/>
</svg>
